<svg width="55" height="55" viewBox="0 0 55 55" fill="none" xmlns="http://www.w3.org/2000/svg">
<path d="M49.1071 0H5.89286C2.63828 0 0 2.63828 0 5.89286V49.1071C0 52.3617 2.63828 55 5.89286 55H49.1071C52.3617 55 55 52.3617 55 49.1071V5.89286C55 2.63828 52.3617 0 49.1071 0ZM21.867 28.2494C10.7335 20.1692 10.8469 20.1488 7.85714 17.8218V14.7321C7.85714 13.1049 9.17628 11.7857 10.8036 11.7857H44.1964C45.8237 11.7857 47.1429 13.1049 47.1429 14.7321V17.8218C44.1509 20.1506 44.2659 20.1697 33.133 28.2495C31.8439 29.1893 29.279 31.4562 27.5 31.4284C25.7195 31.4552 23.1581 29.1908 21.867 28.2494ZM47.1429 22.8072V40.2679C47.1429 41.8951 45.8237 43.2143 44.1964 43.2143H10.8036C9.17628 43.2143 7.85714 41.8951 7.85714 40.2679V22.8072C9.57074 24.1324 11.9489 25.9054 19.5573 31.4272C21.2959 32.6968 24.2194 35.3736 27.4996 35.357C30.8005 35.3735 33.7653 32.6511 35.4452 31.4254C43.0516 25.9051 45.4293 24.1322 47.1429 22.8072Z" fill="#A68549"/>
</svg>
