<svg width="56" height="56" viewBox="0 0 56 56" fill="none" xmlns="http://www.w3.org/2000/svg">
<path d="M50.4 0H5.6C2.5125 0 0 2.5125 0 5.6V50.4C0 53.4875 2.5125 56 5.6 56H50.4C53.4875 56 56 53.4875 56 50.4V5.6C56 2.5125 53.4875 0 50.4 0ZM47.125 18.6C46.95 22.5375 44.2 27.9375 38.875 34.775C33.375 41.925 28.7125 45.5 24.9125 45.5C22.55 45.5 20.5625 43.325 18.925 38.9625C15.7375 27.3 14.375 20.4625 11.75 20.4625C11.45 20.4625 10.3875 21.1 8.575 22.3625L6.675 19.9125C11.3375 15.8125 15.7875 11.2625 18.575 11.0125C21.725 10.7125 23.6625 12.8625 24.3875 17.475C26.975 33.875 28.125 36.35 32.8375 28.925C34.525 26.25 35.4375 24.2125 35.5625 22.8125C36 18.6625 32.325 18.95 29.8375 20.0125C31.825 13.5 35.625 10.3375 41.2375 10.5125C45.4 10.625 47.3625 13.325 47.125 18.6Z" fill="#A68549"/>
</svg>
